# xmcd
#
# Track frame offsets: 
#        150
#        12356
#        28599
#        34520
#        55182
#        65214
#        67120
#        67926
#        80095
#        81171
#        81682
#        83250
#        87038
#        98702
#        105002
#        119029
#        125653
#        150272
#        162965
#        167389
#        170316
#        177955
#        180347
#        181421
#        198766
#        213997
#        230316
#        247187
#        263193
#        275766
#        289412
#
# Disc length: 4073 seconds
#
# Revision: 0
# Processed by: cddbd v1.5.2PL0 Copyright (c) Steve Scherf et al.
# Submitted via: ExactAudioCopy v0.95b3
#
DISCID=a10fe71f
DTITLE=The Beatles  - Sgt Pepper Deluxe - 08 - Disc 4 - sessions  FLAC
DYEAR=1900
DGENRE=
TTITLE0=A Day In The Life - take 1
TTITLE1=A Day In The Life - take 2
TTITLE2=A Day In The Life - take 4
TTITLE3=A Day In The Life - take 6 RM1
TTITLE4=Sgt Pepper's Lonely Hearts Club Band - take 9 RM1
TTITLE5=A Day In The Life - orchestra
TTITLE6=A Day In The Life - hums
TTITLE7=Good Morning Good Morning - take 8
TTITLE8=Being For The Benefit Of Mr Kite! - rehearsal take 7
TTITLE9=Being For The Benefit Of Mr Kite! - studio chat
TTITLE10=Being For The Benefit Of Mr Kite! - take 1
TTITLE11=Being For The Benefit Of Mr Kite! - take 2
TTITLE12=Being For The Benefit Of Mr Kite! - take 7
TTITLE13=A Day In The Life - pianos
TTITLE14=Lucy In The Sky With Diamonds - take 6 (+7+8)
TTITLE15=Sgt Pepper's Lonely Hearts Club Band (Reprise) - take 5
TTITLE16=Within You Without You - Instrumental
TTITLE17=Only A Northern Song - ant speed corrected
TTITLE18=intro to Sgt Pepper
TTITLE19=Billy Shears applause
TTITLE20=Good Morning animal noises
TTITLE21=Being For The Benefit Of Mr Kite! - sound effects
TTITLE22=Being For The Benefit Of Mr Kite! - take 7 (video mix)
TTITLE23=Strawberry Fields Forever - take 25 (key of B)
TTITLE24=Strawberry Fields Forever - take 26 RM9 (key of B)
TTITLE25=Strawberry Fields Forever - take 26 (key of B)
TTITLE26=Strawberry Fields Forever - take 25 monitor mix (key of B)
TTITLE27=Strawberry Fields Forever - take 26 monitor mix (key of B)
TTITLE28=When I'm Sixty-Four - mono speed corrected
TTITLE29=Penny Lane - stereo trumpet ending
TTITLE30=She's Leaving Home - mono speed corrected
EXTD=
EXTT0=
EXTT1=
EXTT2=
EXTT3=
EXTT4=
EXTT5=
EXTT6=
EXTT7=
EXTT8=
EXTT9=
EXTT10=
EXTT11=
EXTT12=
EXTT13=
EXTT14=
EXTT15=
EXTT16=
EXTT17=
EXTT18=
EXTT19=
EXTT20=
EXTT21=
EXTT22=
EXTT23=
EXTT24=
EXTT25=
EXTT26=
EXTT27=
EXTT28=
EXTT29=
EXTT30=
PLAYORDER=
